<svg xmlns="http://www.w3.org/2000/svg" width="64" height="64" viewBox="0 0 64 64">
  <defs>
    <linearGradient id="bg" x1="0%" y1="0%" x2="100%" y2="100%">
      <stop offset="0%" stop-color="#111827"/>
      <stop offset="100%" stop-color="#1f2937"/>
    </linearGradient>
  </defs>
  <rect width="64" height="64" rx="14" fill="url(#bg)"/>
  <path fill="#fff" d="M32 14c-10.5 0-18.5 8.3-18.5 19s8 19 18.6 19c6 0 10.9-2.2 14.2-6.2V32.8H34.7v6h6.2v5.1c-2.2 1.9-5 2.9-8.3 2.9-7 0-12.3-5.9-12.3-12.9 0-7.3 5.3-13.1 12.5-13.1 6.1 0 11.4 4 11.9 10h6.7C50.7 20.6 42.8 14 32 14z"/>
</svg>
